<svg xmlns="http://www.w3.org/2000/svg" viewBox="0 0 32 32"><title>Target</title><g id="Target"><path d="M28.83,10.41l-.42.42a3.876,3.876,0,0,1-2.19,1.11A10.789,10.789,0,0,1,27,16,11,11,0,1,1,16,5a10.789,10.789,0,0,1,4.06.78,3.876,3.876,0,0,1,1.11-2.19l.42-.42a14.016,14.016,0,1,0,7.24,7.24Z" id="id_113"></path><path d="M23.37,12.88,20.94,15.3A4.049,4.049,0,0,1,21,16a5,5,0,1,1-5-5,4.049,4.049,0,0,1,.7.06l2.43-2.43A8.134,8.134,0,0,0,16,8a7.99,7.99,0,1,0,7.37,4.88Z" id="id_114"></path><path d="M29.636,5.9a1.506,1.506,0,0,0-.809-1.1l-1.082-.54-.54-1.081a1.5,1.5,0,0,0-2.4-.39L22.586,5A1.986,1.986,0,0,0,22,6.414V8a1.96,1.96,0,0,0,.075.511l-6.782,6.782a1,1,0,1,0,1.414,1.414l6.782-6.782A1.96,1.96,0,0,0,24,10h1.586A1.986,1.986,0,0,0,27,9.414L29.216,7.2A1.5,1.5,0,0,0,29.636,5.9Z" id="id_115"></path></g></svg>